<?xml version="1.0" encoding="utf-8"?>
<!-- Generator: Adobe Illustrator 27.5.0, SVG Export Plug-In . SVG Version: 6.00 Build 0)  -->
<svg version="1.1" xmlns="http://www.w3.org/2000/svg" xmlns:xlink="http://www.w3.org/1999/xlink" x="0px" y="0px"
	 viewBox="0 0 500 500" style="enable-background:new 0 0 500 500;" xml:space="preserve">
<g id="Background_Simple">
	<g>
		<path style="fill:#92E3A9;" d="M218.003,468.393c42.092-0.079,92.571-13.429,119.148-48.717
			c40.163-53.316,91.156-42.538,126.54-151.603c5.519-17.004,8.909-33.356,10.429-48.969c0.818-8.393,1.085-16.579,0.842-24.531
			c-2.122-72.176-45.905-125.668-103.419-150.109c-75.639-32.158-132.262,7.928-166.7,34.858
			C170.404,106.251,71.551,117.42,35.924,224.364c-5.425,16.307-9.188,33.19-10.746,50.325c-3.574,39.108,4.29,83.13,27.597,115.668
			c1.752,2.443,3.584,4.834,5.486,7.178C95.496,443.321,160.618,468.504,218.003,468.393z"/>
		<path style="opacity:0.7;fill:#FFFFFF;" d="M218.003,468.393c42.092-0.079,92.571-13.429,119.148-48.717
			c40.163-53.316,91.156-42.538,126.54-151.603c5.519-17.004,8.909-33.356,10.429-48.969c0.818-8.393,1.085-16.579,0.842-24.531
			c-2.122-72.176-45.905-125.668-103.419-150.109c-75.639-32.158-132.262,7.928-166.7,34.858
			C170.404,106.251,71.551,117.42,35.924,224.364c-5.425,16.307-9.188,33.19-10.746,50.325c-3.574,39.108,4.29,83.13,27.597,115.668
			c1.752,2.443,3.584,4.834,5.486,7.178C95.496,443.321,160.618,468.504,218.003,468.393z"/>
	</g>
</g>
<g id="Clouds">
	<g>
		<path style="fill:none;stroke:#B2B2B2;stroke-linecap:round;stroke-linejoin:round;stroke-miterlimit:10;" d="M229.516,64.521
			c-19.051-33.518-78.435-33.215-78.437,13.16c0,9.495-22.788,0-31.333,12.343c-8.546,12.343,0.949,19.939-10.445,23.737
			c-11.394,3.798-12.343-5.697-26.586-4.747c-14.242,0.949-12.343,14.242-17.091,18.04c-4.747,3.798-4.747,1.899-15.192,2.849
			c-10.444,0.949-12.343,8.545-12.343,8.545h249.716c0,0,9.495-28.485-7.596-38.929c-17.091-10.444-17.091,3.798-30.384-1.899
			c-10.98-4.706-13.037-13.64-16.108-23.107c-0.35-1.079-0.713-2.164-1.104-3.251c-0.372-1.034-0.778-2.042-1.218-3.026"/>
		<path style="fill:none;stroke:#B2B2B2;stroke-linecap:round;stroke-linejoin:round;stroke-miterlimit:10;" d="M190.801,114.021
			c-2.334-2.857-4.692-7.095-13.344-5.241c-13.167,2.821-7.994,15.989-14.108,18.81c-6.113,2.821-6.113-7.524-14.578-4.232
			c-8.465,3.292-7.995,9.405-7.995,9.405"/>
		<path style="fill:none;stroke:#B2B2B2;stroke-linecap:round;stroke-linejoin:round;stroke-miterlimit:10;" d="M242.352,128.06
			c0,0,5.173-15.989-7.524-27.745c-12.697-11.756-25.864-5.173-29.626,0c-3.762,5.173-3.762,15.048-9.875,15.989
			c-0.573,0.088-1.08,0.069-1.539-0.036"/>
		<path style="fill:none;stroke:#B2B2B2;stroke-linecap:round;stroke-linejoin:round;stroke-miterlimit:10;" d="M118.536,120.333
			c-6.496,3.602-6.033,8.241-6.033,8.241"/>
		<path style="fill:none;stroke:#B2B2B2;stroke-linecap:round;stroke-linejoin:round;stroke-miterlimit:10;" d="M174.81,96.112
			c0,0-10.471-8.377-24.085-2.094c-13.613,6.283-7.33,19.372-13.613,22.514c-5.276,2.638-8.337,0.476-13.834,1.886"/>
	</g>
	<g>
		<path style="fill:none;stroke:#B2B2B2;stroke-linecap:round;stroke-linejoin:round;stroke-miterlimit:10;" d="M117.159,240.744
			c-0.179-0.552-0.365-1.107-0.564-1.663c-7.379-20.519-41.706-21.934-41.707,3.284c0,4.857-11.657,0-16.028,6.314
			c-4.371,6.314,0.486,10.2-5.343,12.142c-5.828,1.943-6.314-2.914-13.599-2.428c-7.285,0.486-6.314,7.285-8.742,9.228
			c-2.429,1.943-2.429,0.971-7.771,1.457c-5.343,0.486-6.314,4.371-6.314,4.371h127.737c0,0,4.857-14.571-3.885-19.913
			c-8.743-5.343-8.743,1.943-15.543-0.971C119.782,250.156,118.73,245.587,117.159,240.744z"/>
		<path style="fill:none;stroke:#B2B2B2;stroke-linecap:round;stroke-linejoin:round;stroke-miterlimit:10;" d="M121.576,268.135
			c0,0,2.646-8.179-3.849-14.193c-6.495-6.014-13.23-2.646-15.155,0c-1.924,2.646-1.924,7.698-5.051,8.179
			c-3.127,0.481-2.405-5.292-9.141-3.849c-6.735,1.443-4.089,8.179-7.216,9.622c-3.127,1.443-3.127-3.849-7.457-2.165
			c-4.33,1.684-4.089,4.811-4.089,4.811"/>
		<path style="fill:none;stroke:#B2B2B2;stroke-linecap:round;stroke-linejoin:round;stroke-miterlimit:10;" d="M87.026,251.792
			c0,0-5.356-4.285-12.32-1.071c-6.964,3.214-3.75,9.91-6.964,11.517c-3.214,1.607-4.821-0.268-8.838,1.607
			c-4.017,1.875-3.75,4.553-3.75,4.553"/>
	</g>
	<g>
		<path style="fill:none;stroke:#B2B2B2;stroke-linecap:round;stroke-linejoin:round;stroke-miterlimit:10;" d="M188.11,218.424
			c-0.098-0.303-0.2-0.609-0.31-0.914c-4.057-11.282-22.931-12.06-22.932,1.806c0,2.671-6.409,0-8.813,3.472
			c-2.404,3.472,0.267,5.608-2.938,6.676c-3.204,1.068-3.471-1.602-7.477-1.335c-4.006,0.267-3.472,4.006-4.807,5.074
			c-1.335,1.068-1.335,0.534-4.273,0.801c-2.938,0.267-3.472,2.403-3.472,2.403h70.233c0,0,2.671-8.011-2.136-10.949
			c-4.807-2.938-4.807,1.068-8.546-0.534C189.553,223.6,188.974,221.087,188.11,218.424z"/>
		<path style="fill:none;stroke:#B2B2B2;stroke-linecap:round;stroke-linejoin:round;stroke-miterlimit:10;" d="M190.539,233.485
			c0,0,1.455-4.497-2.116-7.803c-3.571-3.307-7.274-1.455-8.333,0c-1.058,1.455-1.058,4.232-2.777,4.497
			c-1.719,0.265-1.323-2.91-5.026-2.116c-3.703,0.794-2.248,4.497-3.968,5.29c-1.719,0.794-1.719-2.116-4.1-1.19
			c-2.381,0.926-2.249,2.645-2.249,2.645"/>
		<path style="fill:none;stroke:#B2B2B2;stroke-linecap:round;stroke-linejoin:round;stroke-miterlimit:10;" d="M171.543,224.499
			c0,0-2.945-2.356-6.774-0.589c-3.829,1.767-2.062,5.448-3.829,6.332c-1.767,0.884-2.651-0.147-4.859,0.884
			c-2.209,1.031-2.062,2.503-2.062,2.503"/>
	</g>
</g>
<g id="Mountains_1">
	<g>
		<path style="fill:#B5B5B5;" d="M251.841,296.869l-8.042,0.893l-8.935,8.042l-7.148,2.68l-6.254-1.787l-23.231,16.976
			l-31.272-63.438h-39.314l-9.828-16.083l-14.296,2.68l-72.009,98.442c4.64,16.216,11.628,31.631,21.263,45.081
			c1.752,2.443,3.584,4.834,5.486,7.178c37.236,45.786,102.357,70.969,159.742,70.858c27.741-0.052,59.123-5.873,84.907-19.935
			L251.841,296.869z"/>
		<polygon style="fill:#FFFFFF;" points="127.645,260.236 117.817,244.153 103.521,246.833 46.732,324.469 46.063,327.564 
			80.063,288.564 83.063,308.564 93.063,301.564 95.063,306.564 112.063,290.564 119.063,345.564 138.063,328.564 144.063,344.564 
			162.063,332.564 168.063,346.564 178.063,325.564 180.063,333.564 190.063,315.564 198.231,323.674 166.959,260.236 		"/>
		<polygon style="fill:#FFFFFF;" points="227.063,365.564 233.063,348.564 239.063,360.564 252.063,335.564 264.063,365.564 
			268.131,345.223 251.841,296.869 243.8,297.763 234.865,305.804 227.717,308.485 221.462,306.698 198.231,323.674 
			150.063,372.564 192.063,354.564 194.063,372.564 199.063,373.564 214.063,354.564 218.063,369.564 		"/>
		<path style="fill:#4C4C4C;" d="M221.813,342.446l-3.98,21.035l-1.706,14.781l-1.137,18.761l-14.213,0.569l11.939,51.165
			l-67.975,6.896c24.045,8.416,49.324,12.787,73.262,12.74c27.741-0.052,59.123-5.873,84.907-19.935l-51.068-151.588l-6.151,35.913
			L221.813,342.446z"/>
		<polygon style="fill:#4C4C4C;" points="116.639,246.369 107.543,260.013 113.797,263.993 110.386,276.5 127.645,260.236 		"/>
		<polygon style="fill:#4C4C4C;" points="166.959,260.236 160.414,276.5 148.475,277.637 160.414,324.823 155.866,345.857 
			139.948,308.905 143.927,370.303 145.064,377.694 198.231,323.674 		"/>
		<polygon style="fill:#4C4C4C;" points="200.778,397.591 188.715,411.615 183.091,438.047 173.53,417.801 197.713,386.307 
			193.776,397.555 		"/>
		<path style="fill:#4C4C4C;" d="M80.172,417.238l-0.809,1.699c3.436,2.912,6.988,5.709,10.657,8.377l45.268-42.696l-6.186-4.499
			l-16.872,8.998l-1.687-10.123l-5.062,14.622l-5.624,1.125l5.062-34.869L80.172,417.238z"/>
	</g>
</g>
<g id="Mountain_2">
	<g>
		<path style="fill:#6E6E6E;" d="M474.12,219.104c0.818-8.393,1.085-16.579,0.842-24.531
			c-2.023-68.794-41.894-120.614-95.428-146.483c-7.223,6.581-15.405,14.543-16.137,17.474c-1.333,5.333-1.333,13.333-1.333,16
			c0,2.667-13.333,48.667-13.333,48.667s-26,17.333-27.333,20c-1.333,2.667-4,20.667-5.333,22.667c-1.333,2-2,15.333-2,15.333
			l-12.667,8l2,31.333l14.667,34.667l-13.333,35.333l-8,22.333l7.333,23.667l2.667,16.667l-6.667,7.333l-20.667,10l-14,10
			l-5.333,15.333c0,0,2.667,16.667,0.667,16.667s-18.667,8-18.667,8l-10,12l-17.133,28.793c1.025,0.014,2.053,0.038,3.073,0.036
			c42.092-0.079,92.571-13.429,119.148-48.717c40.163-53.316,91.156-42.538,126.54-151.603
			C469.21,251.069,472.6,234.718,474.12,219.104z"/>
		<path style="fill:#263238;stroke:#263238;stroke-miterlimit:10;" d="M474.12,219.104c0.818-8.393,1.085-16.579,0.842-24.531
			c-1.447-49.206-22.263-89.722-53.587-118.275l-6.312,34.266l-17,20l27-22l13,9l5,17l-40,106l-10,1l8,20l16,6l-22,78l-13-11
			l-33.394,71.699c38.036-38.935,82.944-39.314,115.023-138.19C469.21,251.069,472.6,234.718,474.12,219.104z"/>
		<polyline style="fill:#263238;stroke:#263238;stroke-miterlimit:10;" points="408.063,301.564 358.84,305.884 345.063,335.564 
			357.153,299.978 421.063,296.564 		"/>
	</g>
</g>
<g id="Character">
	<g>
		<path style="fill:#263238;stroke:#263238;stroke-miterlimit:10;" d="M261.563,99.564c0,0,2.5,7.25,13.5,4.5s13.75-15.25,23-17.5
			s13,0.5,11.25,5.25s-0.75,9.25,9,5.75s19.25-14.75,24.5-3.75s-1.75,19.5-12.25,36.75s-26.75,25.75-50.25,27s-35.5-11-41.75-20.5
			s-6.5-26.25-6.5-26.25l26-14.75L261.563,99.564z"/>
		<path style="fill:#FFFFFF;stroke:#263238;stroke-miterlimit:10;" d="M259.189,136.66c0,0-4.334,5.635-10.186,11.269
			c-5.851,5.635-9.319,13.437-8.452,20.371c0.867,6.935,10.402,10.619,16.037,13.436c5.635,2.817,20.155,12.786,22.105,15.17
			c1.95,2.384,3.684,6.718,3.251,8.235c-0.433,1.517-4.118,14.953-4.551,15.604c-0.434,0.65-1.734,4.118-0.867,11.269
			c0.867,7.152,17.988,8.235,29.474,4.984s22.539-16.471,21.888-25.356c-0.65-8.885-6.068-16.471-6.935-21.888
			c-0.867-5.418-10.619-26.873-11.053-29.257c-0.433-2.384-4.334-19.288-4.334-19.288s-3.251-5.635-9.536-10.186
			c-6.285-4.551-14.087-7.802-14.087-7.802s-8.235,2.384-10.186,3.467C269.808,127.774,259.189,136.66,259.189,136.66z"/>
		<path style="fill:#FFFFFF;stroke:#263238;stroke-miterlimit:10;" d="M254.204,137.743c0,0,2.384,4.551,3.034,6.285
			c0.868,2.314,9.102-1.3,13.653-6.502c4.551-5.201,4.985-7.802,3.901-9.969c-1.084-2.167-10.186-8.235-10.186-8.235
			s-3.467,9.536-5.635,12.353C256.805,134.493,254.204,137.743,254.204,137.743z"/>
		<g>
			<path style="fill:#FFFFFF;stroke:#263238;stroke-miterlimit:10;" d="M230.539,117.7c0,0,4.77,8.805,8.072,12.474
				c3.302,3.669,17.244,11.74,22.38,8.805c5.136-2.935,5.87-12.841,5.503-19.078c-0.367-6.237-8.805-15.409-8.805-15.409
				L230.539,117.7z"/>
			<path style="fill:#969696;stroke:#263238;stroke-miterlimit:10;" d="M265.578,119.682c0,0,1.34,8.043,0,11.395
				c-1.341,3.351-4.586,7.903-4.586,7.903s10.172-4.775,6.15-21.085L265.578,119.682z"/>
			<path style="fill:#969696;stroke:#263238;stroke-miterlimit:10;" d="M254.855,106.753c0,0,7.802,16.037,9.102,16.254
				c1.3,0.217,4.984-2.601,5.201-5.201s-6.285-15.604-6.285-15.604L254.855,106.753z"/>
			<polyline style="fill:none;stroke:#263238;stroke-miterlimit:10;" points="242.502,119.539 246.403,129.508 250.52,127.341 			
				"/>
			<path style="fill:none;stroke:#263238;stroke-miterlimit:10;" d="M250.737,131.242c0,0,5.851-1.3,6.718-7.368"/>
			<path style="fill:#263238;" d="M249.5,118.289c0.577,0.838,0.726,1.737,0.332,2.009c-0.394,0.272-1.182-0.187-1.759-1.025
				c-0.577-0.838-0.726-1.737-0.332-2.009C248.135,116.992,248.923,117.451,249.5,118.289z"/>
			<path style="fill:#263238;" d="M239.786,122.732c0.577,0.838,0.726,1.737,0.332,2.009c-0.394,0.272-1.182-0.187-1.759-1.025
				s-0.726-1.737-0.332-2.009C238.421,121.435,239.209,121.894,239.786,122.732z"/>
		</g>
		<path style="fill:#92E3A9;stroke:#263238;stroke-miterlimit:10;" d="M226.137,120.268c0,0,23.481-5.137,42.56-20.913
			c0,0-6.237-14.676-21.28-16.51c-15.043-1.834-24.949,7.338-26.416,19.078C219.533,113.664,226.137,120.268,226.137,120.268z"/>
		<path style="fill:#FFFFFF;stroke:#263238;stroke-miterlimit:10;" d="M280.861,123.657c0,0,9.536-7.585,16.904-9.319
			c7.368-1.734,21.022,0,21.022,0l15.387-0.217c0,0,5.418-3.901,8.885-5.201s30.341-11.703,30.341-11.703l1.95-1.951
			c0,0,11.486-5.851,12.57-6.935c1.083-1.084,4.984-1.734,6.935-1.084c1.951,0.65,4.334,4.334,4.551,7.585
			c0.217,3.251-6.068,5.635-12.136,8.019c-6.068,2.384-11.92,3.901-11.92,3.901s-31.424,21.022-34.241,22.539
			c-2.817,1.517-8.452,1.3-9.752,1.517c-1.3,0.217-26.656,1.734-26.656,1.734l-0.867,7.368l-23.622-13.437L280.861,123.657z"/>
		<g>
			<path style="fill:#FFFFFF;stroke:#263238;stroke-miterlimit:10;" d="M249.196,151.957c0,0-2.483-2.935-7.223,3.16
				s-5.418,10.835-6.998,20.542c-1.58,9.706-1.129,24.154-0.677,30.474c0.452,6.321,0.903,17.833,2.483,26.637
				c1.58,8.804,7.449,26.862,7.449,26.862s-0.903,7.449,0.226,10.384c1.129,2.935,3.837,5.418,4.289,7.223
				c0.451,1.806,3.837,5.643,6.32,5.418c2.483-0.226,9.932,0.226,10.384-1.806c0.451-2.032-2.257-2.483-3.16-2.483
				s-4.289-0.452-4.289-0.452s-2.483-2.032-2.483-3.612c0-1.58-1.58-6.998-0.226-7.224c1.354-0.226,4.515,6.321,5.192,8.352
				c0.677,2.032,2.935,2.935,3.16-0.452c0.226-3.386-2.032-10.384-2.032-11.061c0-0.677-2.483-5.418-4.515-6.546
				c-2.032-1.129-7.449-3.612-7.449-3.612s0-14.447,0-22.348c0-7.901-2.032-23.928-2.032-23.928s5.869-28.668,7.223-31.828
				c1.354-3.16,3.612-5.192,1.129-12.19C253.485,156.471,249.196,151.957,249.196,151.957z"/>
			<path style="fill:#92E3A9;stroke:#263238;stroke-miterlimit:10;" d="M262.288,278.368c-0.903,0-4.289-0.452-4.289-0.452
				s-2.483-2.032-2.483-3.612c0-1.58-1.58-6.998-0.226-7.224c1.354-0.226,4.515,6.32,5.192,8.352
				c0.677,2.031,2.935,2.935,3.16-0.452c0.226-3.386-2.032-10.384-2.032-11.061c0-0.677-2.483-5.418-4.515-6.546
				c-2.032-1.129-7.449-3.612-7.449-3.612s0-0.203,0-0.563c-3.004,0.821-4.976,2.36-6.244,3.839
				c0.507,1.608,0.826,2.593,0.826,2.593s-0.903,7.449,0.226,10.384c1.129,2.935,3.837,5.418,4.289,7.223
				c0.451,1.806,3.837,5.643,6.32,5.418c2.483-0.226,9.932,0.226,10.384-1.806C265.9,278.819,263.191,278.368,262.288,278.368z"/>
		</g>
		<path style="fill:#92E3A9;stroke:#263238;stroke-miterlimit:10;" d="M394.854,87.248c-1.951-0.65-5.851,0-6.935,1.084
			c-0.822,0.822-7.626,4.385-10.865,6.059l5.604,10.14c1.456-0.493,3.025-1.055,4.612-1.679c6.068-2.384,12.353-4.768,12.136-8.019
			C399.189,91.582,396.805,87.898,394.854,87.248z"/>
		<path style="fill:#FFFFFF;stroke:#263238;stroke-miterlimit:10;" d="M305.688,177.564c-5.178,0-9.375,4.197-9.375,9.375
			c0,5.178,4.197,9.375,9.375,9.375c5.178,0,9.375-4.197,9.375-9.375C315.063,181.761,310.865,177.564,305.688,177.564z
			 M305.688,194.064c-3.935,0-7.125-3.19-7.125-7.125c0-3.935,3.19-7.125,7.125-7.125c3.935,0,7.125,3.19,7.125,7.125
			C312.813,190.874,309.623,194.064,305.688,194.064z"/>
		<g>
			<g>
				<path style="fill:#FFFFFF;stroke:#263238;stroke-miterlimit:10;" d="M304.396,310.564l2.667,13.333l-0.667,1.333
					c0,0-8.333,9-11.667,23.333c-3.333,14.333,1.333,36.667,1.333,36.667l9,3.333c0,0,15.667-50,19.667-57.667
					c4-7.667,8.667-27.333,8.667-27.333S311.396,314.231,304.396,310.564z"/>
				<path style="fill:#263238;stroke:#263238;stroke-miterlimit:10;" d="M310.063,380.897c0,0-14.667-1-16-1
					c-1.333,0-4.333-0.333-4.333-0.333l1,12c0,0-3.667,15.667-3.333,19.667c0.333,4,2,2.667,6.333,2.667
					c4.333,0,7.667-0.667,11-0.667c3.333,0,8.667,3.667,17.333-0.333c8.667-4,10.333-12.667,7-14
					c-3.333-1.333-10.667-0.667-12.667-1.333c-2-0.667-6-1.667-6-2.667s-1-6-1-6L310.063,380.897z"/>
				<path style="fill:#FFFFFF;stroke:#263238;stroke-miterlimit:10;" d="M329.165,398.957c-0.759,3.98-2.936,8.798-8.769,11.273
					c-11,4.667-9.667-1.333-18.667-1.667c-5.552-0.206-10.97,0.476-14.312,1.029c-0.045,0.653-0.057,1.214-0.022,1.637
					c0.333,4,2,2.667,6.333,2.667c4.333,0,7.667-0.667,11-0.667c3.333,0,8.667,3.667,17.333-0.333
					C330.632,408.943,332.349,400.438,329.165,398.957z"/>
				<path style="fill:#92E3A9;stroke:#263238;stroke-miterlimit:10;" d="M296.063,251.231c0,0,6,16.333,7.667,31
					c1.667,14.667-0.667,26,0.667,29.667c1.333,3.667,2,8,10.333,8c8.333,0,14.667-4,19-13.333c4.333-9.333,5-47.333,5-55
					c0-7.667-0.667-18.667-0.667-18.667S316.729,250.231,296.063,251.231z"/>
				<path style="fill:#263238;stroke:#263238;stroke-miterlimit:10;" d="M338.729,251.564c0-7.667-0.667-18.667-0.667-18.667
					s-14.715,11.947-31.541,16.573l-0.188,2.196c0,0,14.667-2,22,0.667c6.382,2.321,7.21,37.962,7.317,47.17
					C338.27,285.059,338.729,257.914,338.729,251.564z"/>
				<path style="fill:#263238;stroke:#263238;stroke-miterlimit:10;" d="M329.667,246.333c0,0,0.667,18-2.667,31.333
					C323.667,291,316.333,307,316.333,307s9.333-40.667,9.333-58.667"/>
			</g>
			<g>
				<path style="fill:#92E3A9;stroke:#263238;stroke-miterlimit:10;" d="M304.006,210.276c0,0-8.155-3.656-17.715,1.968
					s-12.373,17.715-8.436,29.526c3.937,11.81,23.621,18.559,35.712,12.935c12.092-5.624,21.934-16.028,29.245-22.215
					c7.311-6.186,20.246-18.278,20.246-18.278s-5.905,72.831-5.905,74.237c0,1.406-0.281,6.749,0,11.529
					c0.281,4.78,1.687,5.905,1.687,5.905s9.28-0.844,14.904-1.968c5.624-1.125,12.935-1.406,20.809-5.062s9.28-9.28,7.03-10.123
					s-7.311-0.281-10.686,0s-6.186,0.281-7.03,0.281c-0.844,0-3.655,0-3.655,0s-0.562-7.311-0.562-8.155s-2.667-14.08-2.667-14.08
					v-3.611l12.228-59.358c0,0,1.406-9.561-1.687-12.373c-3.093-2.812-9.28-5.061-19.684-1.968
					C357.434,192.56,304.006,210.276,304.006,210.276z"/>
				<path style="fill:#263238;" d="M304.006,210.276c0,0-9.673,6.057-11.006,12.057c-1.333,6-2.667,8-2.667,8
					S282.346,216.219,304.006,210.276z"/>
				<path style="fill:none;stroke:#263238;stroke-miterlimit:10;" d="M374.025,197.622c-4.499,4.218-10.967,16.591-10.967,16.591
					s1.406-12.935,3.656-17.153"/>
			</g>
			<path style="fill:#FFFFFF;stroke:#263238;stroke-miterlimit:10;" d="M401.582,288.73c-2.25-0.844-7.311-0.281-10.686,0
				c-3.374,0.281-6.186,0.281-7.03,0.281c-0.844,0-3.656,0-3.656,0s-1.968-10.123-1.968-10.967c0-0.844,5.343-5.905,5.343-5.905
				l-2.812-4.499l-2.348,0.219l-1.805-2.527l12.128-59.479c-14.432-7.683-25.473,6.064-29.149,11.57
				c2.091-1.932,3.459-3.211,3.459-3.211s-5.905,72.831-5.905,74.237c0,1.406-0.281,6.749,0,11.529
				c0.281,4.78,1.687,5.905,1.687,5.905s9.28-0.844,14.904-1.968c5.624-1.125,12.935-1.406,20.809-5.061
				C402.426,295.198,403.832,289.574,401.582,288.73z"/>
			<g>
				<path style="fill:#263238;stroke:#263238;stroke-miterlimit:10;" d="M401.582,288.73c-2.25-0.844-7.311-0.281-10.686,0
					c-3.374,0.281-6.186,0.281-7.03,0.281c-0.844,0-3.656,0-3.656,0s-1.968-10.123-1.968-10.967c0-0.541,2.191-2.81,3.768-4.373
					c-5.21-0.732-11.539-1.272-15.578-0.407c-2.879,0.617-5.792,1.648-8.334,2.708c-0.566,7.178-0.945,12.121-0.945,12.477
					c0,1.406-0.281,6.749,0,11.529c0.281,4.78,1.687,5.905,1.687,5.905s9.28-0.844,14.904-1.968
					c5.624-1.125,12.935-1.406,20.809-5.061C402.426,295.198,403.832,289.574,401.582,288.73z"/>
				<path style="fill:#FFFFFF;stroke:#263238;stroke-miterlimit:10;" d="M402.229,291.93c-2.958,1.73-6.841,3.772-10.729,5.145
					c-6.112,2.157-25.206,5.418-33.708,6.811c0.485,1.544,1.048,1.998,1.048,1.998s9.28-0.844,14.904-1.968
					c5.624-1.125,12.935-1.406,20.809-5.061C399.045,296.768,401.425,294.044,402.229,291.93z"/>
			</g>
		</g>
		
			<line style="fill:none;stroke:#263238;stroke-width:3;stroke-linecap:round;stroke-linejoin:round;stroke-miterlimit:10;" x1="277.398" y1="123.666" x2="304.628" y2="181.352"/>
		
			<line style="fill:none;stroke:#263238;stroke-width:3;stroke-linecap:round;stroke-linejoin:round;stroke-miterlimit:10;" x1="252.317" y1="143.373" x2="299.97" y2="184.218"/>
		
			<line style="fill:none;stroke:#263238;stroke-width:3;stroke-linecap:round;stroke-linejoin:round;stroke-miterlimit:10;" x1="310.47" y1="181.798" x2="314.66" y2="168.812"/>
		
			<line style="fill:none;stroke:#263238;stroke-width:3;stroke-linecap:round;stroke-linejoin:round;stroke-miterlimit:10;" x1="298.563" y1="186.939" x2="263.424" y2="187.443"/>
		<path style="fill:none;stroke:#263238;stroke-width:3;stroke-linecap:round;stroke-linejoin:round;stroke-miterlimit:10;" d="
			M307.136,191.384c0,0,3.583,56.969,9.674,75.6c6.091,18.631,35.538,15.476,39.837,9.743"/>
		<path style="fill:#FFFFFF;stroke:#263238;stroke-miterlimit:10;" d="M378.524,280.294c0,0,7.874-4.78,5.905-10.685
			c-1.968-5.905-10.404-5.343-17.997-3.093s-12.935,6.186-12.654,9.28c0.281,3.093,1.968,6.467,3.093,6.467c1.125,0,1.125,0,1.125,0
			s-2.812-3.656,6.468-5.062C373.744,275.795,377.962,274.108,378.524,280.294z"/>
		
			<polyline style="fill:none;stroke:#263238;stroke-width:3;stroke-linecap:round;stroke-linejoin:round;stroke-miterlimit:10;" points="
			396.063,93.564 378.553,273.729 379.919,381.553 		"/>
		
			<line style="fill:none;stroke:#263238;stroke-width:3;stroke-linecap:round;stroke-linejoin:round;stroke-miterlimit:10;" x1="397.292" y1="84.455" x2="412.629" y2="17.172"/>
		<path style="fill:#92E3A9;stroke:#263238;stroke-miterlimit:10;" d="M397.455,82.48c0,0,2.601-2.167,3.034,0.433
			c0.433,2.601,1.517,11.486,0.433,12.57c-1.084,1.084-8.669,2.384-9.752,1.734c-1.084-0.65,0.867-4.334,0.867-4.334
			s-3.467-1.951-3.034-2.817c0.434-0.867,2.384-3.251,2.384-3.251s-1.734-0.65-1.734-2.167
			C389.653,83.131,397.455,82.48,397.455,82.48z"/>
		<path style="fill:#92E3A9;stroke:#263238;stroke-miterlimit:10;" d="M378.118,94.269c0,0,1.999-3.77,2.866-4.637
			c0.867-0.867,4.768-6.285,8.669-6.502c3.901-0.217,7.802-3.251,7.802-3.251s2.167-0.433,1.3,1.951
			c-0.867,2.384-2.817,5.418-5.418,6.068c-2.601,0.65-3.901,1.3-3.901,1.3s0.65,5.851-5.418,8.235"/>
		<path style="fill:none;stroke:#263238;stroke-width:3;stroke-linecap:round;stroke-linejoin:round;stroke-miterlimit:10;" d="
			M278.989,216.207c0,0-16.107,29.285-9.151,35.508C276.793,257.938,285.944,211.082,278.989,216.207z"/>
		<path style="fill:none;stroke:#263238;stroke-width:3;stroke-linecap:round;stroke-linejoin:round;stroke-miterlimit:10;" d="
			M278.989,216.207c0,0-11.348,42.829-4.759,45.757C280.819,264.893,288.141,205.592,278.989,216.207z"/>
	</g>
</g>
</svg>
